<svg width="24" height="24" viewBox="0 0 24 24" fill="none" xmlns="http://www.w3.org/2000/svg">
<path d="M8.33326 10.6875C7.94118 10.7775 7.57116 10.9453 7.24512 11.181C6.91908 11.4166 6.64366 11.7153 6.43518 12.0594C6.2267 12.4034 6.08939 12.7858 6.0314 13.1839C5.97341 13.582 5.99591 13.9877 6.09757 14.3769C6.19923 14.7661 6.37798 15.131 6.62324 15.4499C6.86849 15.7687 7.17526 16.0352 7.52536 16.2333C7.87546 16.4315 8.26177 16.5573 8.6614 16.6034C9.06103 16.6496 9.46586 16.615 9.85188 16.5018M15.6578 10.6875C16.0509 10.7765 16.4221 10.9436 16.7493 11.179C17.0765 11.4144 17.353 11.7131 17.5625 12.0575C17.7719 12.4019 17.9099 12.7849 17.9683 13.1837C18.0267 13.5826 18.0043 13.989 17.9024 14.379C17.8005 14.769 17.6213 15.1345 17.3753 15.4538C17.1293 15.7731 16.8216 16.0397 16.4705 16.2377C16.1194 16.4357 15.7321 16.561 15.3316 16.6063C14.9311 16.6516 14.5256 16.6158 14.1391 16.5012M15.6415 10.6058C15.6415 9.64945 15.2616 8.73232 14.5854 8.0561C13.9092 7.37989 12.9921 7 12.0358 7C11.0795 7 10.1623 7.37989 9.48612 8.0561C8.8099 8.73232 8.43001 9.64945 8.43001 10.6058M14.1391 13.6106L12.0358 15.7139L9.93241 13.6106M12.0358 10.6058V15.4134" stroke="white" stroke-width="1.5" stroke-linecap="round" stroke-linejoin="round"/>
</svg>
