<svg width="30" height="30" viewBox="0 0 30 30" fill="none" xmlns="http://www.w3.org/2000/svg">
<path d="M16.7675 23.2325L23.2325 16.7675M16.7675 23.2325C16.2987 22.7637 15.663 22.5 15 22.5C14.337 22.5 13.7011 22.7634 13.2322 23.2322C12.7634 23.7011 12.5 24.337 12.5 25C12.5 25.663 12.7634 26.2989 13.2322 26.7678C13.7011 27.2366 14.337 27.5 15 27.5C15.663 27.5 16.2989 27.2366 16.7678 26.7678C17.2366 26.2989 17.5 25.663 17.5 25C17.5 24.337 17.2363 23.7013 16.7675 23.2325ZM23.2325 16.7675C23.7013 17.2363 24.337 17.5 25 17.5C25.663 17.5 26.2989 17.2366 26.7678 16.7678C27.2366 16.2989 27.5 15.663 27.5 15C27.5 14.337 27.2366 13.7011 26.7678 13.2322C26.2989 12.7634 25.663 12.5 25 12.5C24.337 12.5 23.7011 12.7634 23.2322 13.2322C22.7634 13.7011 22.5 14.337 22.5 15C22.5 15.663 22.7637 16.2987 23.2325 16.7675ZM13.2325 16.7675L6.7675 23.2325M13.2325 16.7675C13.7013 17.2363 14.337 17.5 15 17.5C15.663 17.5 16.2989 17.2366 16.7678 16.7678C17.2366 16.2989 17.5 15.663 17.5 15C17.5 14.337 17.2363 13.7013 16.7675 13.2325M13.2325 16.7675C12.7637 16.2987 12.5 15.663 12.5 15C12.5 14.337 12.7634 13.7011 13.2322 13.2322C13.7011 12.7634 14.337 12.5 15 12.5C15.663 12.5 16.2987 12.7637 16.7675 13.2325M6.7675 23.2325C6.29866 22.7637 5.66304 22.5 5 22.5C4.33696 22.5 3.70107 22.7634 3.23223 23.2322C2.76339 23.7011 2.5 24.337 2.5 25C2.5 25.663 2.76339 26.2989 3.23223 26.7678C3.70107 27.2366 4.33696 27.5 5 27.5C5.66304 27.5 6.29893 27.2366 6.76777 26.7678C7.23661 26.2989 7.5 25.663 7.5 25C7.5 24.337 7.23634 23.7013 6.7675 23.2325ZM16.7675 13.2325L23.2325 6.7675M23.2325 6.7675C23.7013 7.23634 24.337 7.5 25 7.5C25.663 7.5 26.2989 7.23661 26.7678 6.76777C27.2366 6.29893 27.5 5.66304 27.5 5C27.5 4.33696 27.2366 3.70107 26.7678 3.23223C26.2989 2.76339 25.663 2.5 25 2.5C24.337 2.5 23.7011 2.76339 23.2322 3.23223C22.7634 3.70107 22.5 4.33696 22.5 5C22.5 5.66304 22.7637 6.29866 23.2325 6.7675ZM6.7675 13.2325L13.2325 6.7675M6.7675 13.2325C6.29866 12.7637 5.66304 12.5 5 12.5C4.33696 12.5 3.70107 12.7634 3.23223 13.2322C2.76339 13.7011 2.5 14.337 2.5 15C2.5 15.663 2.76339 16.2989 3.23223 16.7678C3.70107 17.2366 4.33696 17.5 5 17.5C5.66304 17.5 6.29893 17.2366 6.76777 16.7678C7.23661 16.2989 7.5 15.663 7.5 15C7.5 14.337 7.23634 13.7013 6.7675 13.2325ZM13.2325 6.7675C13.7013 7.23634 14.337 7.5 15 7.5C15.663 7.5 16.2989 7.23661 16.7678 6.76777C17.2366 6.29893 17.5 5.66304 17.5 5C17.5 4.33696 17.2366 3.70107 16.7678 3.23223C16.2989 2.76339 15.663 2.5 15 2.5C14.337 2.5 13.7011 2.76339 13.2322 3.23223C12.7634 3.70107 12.5 4.33696 12.5 5C12.5 5.66304 12.7637 6.29866 13.2325 6.7675ZM7.5 5C7.5 5.66304 7.23661 6.29893 6.76777 6.76777C6.29893 7.23661 5.66304 7.5 5 7.5C4.33696 7.5 3.70107 7.23661 3.23223 6.76777C2.76339 6.29893 2.5 5.66304 2.5 5C2.5 4.33696 2.76339 3.70107 3.23223 3.23223C3.70107 2.76339 4.33696 2.5 5 2.5C5.66304 2.5 6.29893 2.76339 6.76777 3.23223C7.23661 3.70107 7.5 4.33696 7.5 5ZM27.5 25C27.5 25.663 27.2366 26.2989 26.7678 26.7678C26.2989 27.2366 25.663 27.5 25 27.5C24.337 27.5 23.7011 27.2366 23.2322 26.7678C22.7634 26.2989 22.5 25.663 22.5 25C22.5 24.337 22.7634 23.7011 23.2322 23.2322C23.7011 22.7634 24.337 22.5 25 22.5C25.663 22.5 26.2989 22.7634 26.7678 23.2322C27.2366 23.7011 27.5 24.337 27.5 25Z" stroke="#0073D0" stroke-width="2" stroke-linecap="round" stroke-linejoin="round"/>
</svg>
