<svg width="24" height="24" viewBox="0 0 24 24" fill="none" xmlns="http://www.w3.org/2000/svg">
<path d="M7.5 21V11.1L11.1 3C11.8161 3 12.5028 3.28446 13.0092 3.79081C13.5155 4.29716 13.8 4.98392 13.8 5.7V9.3H19.2C19.4609 9.29704 19.7194 9.35085 19.9574 9.4577C20.1955 9.56454 20.4075 9.72186 20.5787 9.91876C20.7499 10.1157 20.8763 10.3474 20.949 10.598C21.0218 10.8486 21.0392 11.112 21 11.37L19.758 19.47C19.6929 19.8992 19.4749 20.2904 19.1441 20.5716C18.8133 20.8528 18.3921 21.0049 17.958 21H7.5ZM7.5 21L5.097 21C4.58764 21.009 4.09269 20.8307 3.70613 20.4989C3.31956 20.167 3.06829 19.7048 3 19.2V12.9C3.141 11.855 4.043 10.982 5.097 11H7.5L7.5 21Z" stroke="#0073D0" stroke-width="1.5" stroke-linejoin="round"/>
</svg>
