<svg width="168" height="23" viewBox="0 0 168 23" fill="none" xmlns="http://www.w3.org/2000/svg">
<path d="M49.617 -3.05176e-05H43.0273V22.9997H49.617V-3.05176e-05Z" fill="url(#paint0_linear_20602_200)"/>
<path fill-rule="evenodd" clip-rule="evenodd" d="M28.0963 0V7.60035H21.4977V7.6152L8.23158 22.9997H0L14.0391 6.64613H5.67177V0H28.0963Z" fill="white"/>
<path d="M28.0948 6.9527H21.4961V22.9999H28.0948V6.9527Z" fill="url(#paint1_linear_20602_200)"/>
<path fill-rule="evenodd" clip-rule="evenodd" d="M41.2552 -3.05176e-05L21.5117 22.9997H29.7433L49.5737 -3.05176e-05H41.2534H41.2552Z" fill="white"/>
<path d="M54.4219 22.95V-3.05176e-05H76.1908V5.30693H60.7717V8.78066H72.8014V13.7713H60.7717V17.6389H76.771V22.95H54.4219Z" fill="white"/>
<path d="M92.8331 -1.52588e-05C97.0255 -1.52588e-05 100.333 0.995172 102.756 2.98555C105.179 4.97592 106.39 7.80574 106.389 11.475C106.389 15.1471 105.178 17.9776 102.756 19.9666C100.335 21.9555 97.0268 22.95 92.8331 22.95H80.7422V-1.52588e-05H92.8331ZM92.1609 17.377C94.7488 17.377 96.7081 16.8693 98.0388 15.8538C99.3695 14.8384 100.036 13.3788 100.039 11.475C100.039 9.57403 99.3723 8.11512 98.0388 7.09828C96.7054 6.08145 94.7461 5.57373 92.1609 5.57513H87.0921V17.377H92.1609Z" fill="white"/>
<path d="M110.297 22.95V-1.52588e-05H116.647V22.95H110.297Z" fill="white"/>
<path d="M141.585 22.95L139.846 18.5251H127.51L125.769 22.95H119.52L128.891 -1.52588e-05H138.663L148.061 22.95H141.585ZM129.555 13.4109H137.83L133.678 2.9185L129.555 13.4109Z" fill="white"/>
<path d="M151.652 7.96569H156.811V10.2473H147.355V8.15216L152.33 5.17707C152.753 4.94359 153.155 4.67301 153.532 4.36835C153.632 4.2809 153.713 4.17163 153.767 4.04844C153.821 3.92526 153.849 3.79122 153.846 3.656C153.846 3.00093 153.324 2.67339 152.279 2.67339C151.086 2.67339 150.405 3.15317 150.236 4.11274L147.678 3.94723C147.723 3.37801 147.888 2.82549 148.16 2.32769C148.408 1.88221 148.752 1.5009 149.166 1.21308C149.589 0.92341 150.057 0.710777 150.551 0.58454C151.805 0.282822 153.115 0.32109 154.351 0.695582C154.942 0.88568 155.471 1.24035 155.877 1.7201C156.282 2.20669 156.496 2.83018 156.478 3.46953C156.48 4.03547 156.289 4.5843 155.936 5.01993C155.575 5.48086 154.886 6.01581 153.867 6.6248L151.652 7.96569Z" fill="white"/>
<path d="M166.077 6.05532H167.998V8.339H166.077V10.2477H163.446V8.339H157.359V6.24387L161.813 0.572357H166.069L166.077 6.05532ZM160.201 6.05532H163.446V1.9321L160.201 6.05532Z" fill="white"/>
<defs>
<linearGradient id="paint0_linear_20602_200" x1="46.3221" y1="22.9997" x2="46.3221" y2="-32.3408" gradientUnits="userSpaceOnUse">
<stop stop-color="white"/>
<stop offset="0.7" stop-color="white" stop-opacity="0.01"/>
</linearGradient>
<linearGradient id="paint1_linear_20602_200" x1="24.7963" y1="30.3068" x2="24.7963" y2="6.77973" gradientUnits="userSpaceOnUse">
<stop stop-color="white" stop-opacity="0.01"/>
<stop offset="0.915" stop-color="white"/>
</linearGradient>
</defs>
</svg>
