<svg width="181" height="50" viewBox="0 0 181 50" fill="none" xmlns="http://www.w3.org/2000/svg">
<g clip-path="url(#clip0_397_1686)">
<path d="M47.387 1.7553V17.4989H44V1.7553H47.387ZM50.2514 11.0951H46.2998V8.20168H50.0841C50.6974 8.20168 51.1643 8.05276 51.4849 7.7549C51.8055 7.45705 51.9658 7.02445 51.9658 6.45712C51.9658 5.90396 51.8055 5.48555 51.4849 5.20188C51.1643 4.91821 50.6974 4.77638 50.0841 4.77638H46.5298V1.7553H50.4395C52.0007 1.7553 53.2203 2.14535 54.0984 2.92544C54.9904 3.70553 55.4365 4.76929 55.4365 6.11671C55.4365 7.03864 55.2135 7.81873 54.7674 8.45698C54.3214 9.09524 53.6733 9.54911 52.823 9.81859V9.52074C53.729 9.71931 54.419 10.1306 54.8929 10.7547C55.3807 11.3788 55.6246 12.1801 55.6246 13.1588C55.6246 14.0807 55.4225 14.8679 55.0183 15.5203C54.628 16.1728 54.0426 16.6692 53.2621 17.0096C52.4955 17.3358 51.5546 17.4989 50.4395 17.4989H46.5298V14.4779H50.2514C50.8786 14.4779 51.3525 14.336 51.6731 14.0524C51.9937 13.7545 52.154 13.3148 52.154 12.7333C52.154 12.1943 51.9867 11.7901 51.6522 11.5206C51.3316 11.2369 50.8647 11.0951 50.2514 11.0951Z" fill="#0073D0"/>
<path d="M67.731 17.4989H57.9044V1.7553H67.731V4.94658H60.3506L61.2914 4.05302V8.03148H66.9992V11.0526H61.2914V15.2012L60.3506 14.3077H67.731V17.4989Z" fill="#0073D0"/>
<path d="M77.088 3.41477V17.4989H73.7009V3.41477H77.088ZM69.3103 4.94658V1.7553H81.4786V4.94658H69.3103Z" fill="#0073D0"/>
<path d="M90.7269 3.41477V17.4989H87.3399V3.41477H90.7269ZM82.9493 4.94658V1.7553H95.1175V4.94658H82.9493Z" fill="#0073D0"/>
<path d="M106.974 17.4989H97.147V1.7553H106.974V4.94658H99.5932L100.534 4.05302V8.03148H106.242V11.0526H100.534V15.2012L99.5932 14.3077H106.974V17.4989Z" fill="#0073D0"/>
<path d="M113.132 17.4989H109.745V1.7553H115.724C117.606 1.7553 119.056 2.20208 120.073 3.09564C121.104 3.97501 121.62 5.23025 121.62 6.86135C121.62 7.88255 121.404 8.75484 120.972 9.47819C120.554 10.2015 119.913 10.7902 119.049 11.244L121.767 17.4989H118.066L115.745 11.9887H113.132V17.4989ZM113.132 4.81893V8.96759H115.703C116.442 8.96759 117.014 8.7832 117.418 8.41443C117.836 8.04566 118.045 7.52797 118.045 6.86135C118.045 6.19472 117.843 5.69121 117.439 5.35081C117.048 4.99622 116.477 4.81893 115.724 4.81893H113.132Z" fill="#0073D0"/>
<path d="M136.363 17.7542C134.816 17.7542 133.477 17.428 132.348 16.7756C131.219 16.109 130.348 15.1728 129.735 13.9673C129.122 12.7475 128.815 11.3079 128.815 9.64839C128.815 8.00311 129.136 6.57058 129.777 5.35081C130.418 4.13103 131.317 3.18783 132.474 2.52121C133.631 1.8404 134.976 1.5 136.509 1.5C137.805 1.5 138.955 1.74112 139.959 2.22336C140.976 2.69141 141.806 3.35803 142.447 4.22322C143.088 5.08841 143.485 6.10962 143.639 7.28685H140.063C139.84 6.49258 139.408 5.88269 138.767 5.45718C138.14 5.03168 137.359 4.81893 136.425 4.81893C135.589 4.81893 134.864 5.01041 134.251 5.39336C133.652 5.77631 133.192 6.32947 132.871 7.05282C132.551 7.76199 132.39 8.62009 132.39 9.62712C132.39 10.6058 132.551 11.4568 132.871 12.1801C133.206 12.9035 133.673 13.4637 134.272 13.8609C134.885 14.2438 135.603 14.4353 136.425 14.4353C137.373 14.4353 138.175 14.2155 138.83 13.7758C139.499 13.3219 139.938 12.7049 140.147 11.9248H143.659C143.478 13.0879 143.053 14.1091 142.384 14.9885C141.729 15.8678 140.886 16.5486 139.854 17.0309C138.823 17.5131 137.659 17.7542 136.363 17.7542Z" fill="#0073D0"/>
<path d="M147.301 17.4989H143.768L149.288 1.7553H152.591L158.09 17.4989H154.494L153.406 14.18H148.409L147.301 17.4989ZM150.5 7.9251L149.392 11.2866H152.445L151.336 7.9251C151.253 7.65562 151.169 7.37904 151.086 7.09537C151.002 6.8117 150.946 6.57768 150.918 6.39329C150.89 6.57768 150.835 6.8117 150.751 7.09537C150.681 7.36486 150.598 7.64144 150.5 7.9251Z" fill="#0073D0"/>
<path d="M163.277 1.7553V17.4989H159.89V1.7553H163.277ZM160.497 17.4989V14.3077H169.382V17.4989H160.497Z" fill="#0073D0"/>
<path d="M174.895 1.7553V17.4989H171.508V1.7553H174.895ZM172.114 17.4989V14.3077H181V17.4989H172.114Z" fill="#0073D0"/>
<path d="M47.9336 46.5764H44V26.6528H47.9336L53.4455 41.5147L58.9826 26.6528H62.9662V46.5764H59.0327V42.4032C59.0327 41.3263 59.0327 40.4378 59.0327 39.7378C59.0327 39.0377 59.041 38.4544 59.0577 37.9877C59.0744 37.521 59.0911 37.1172 59.1078 36.7761C59.1413 36.4172 59.183 36.0492 59.2331 35.6723L55.2996 46.5764H51.5915L47.683 35.6723C47.7999 36.4082 47.8667 37.2069 47.8834 38.0685C47.9168 38.93 47.9336 39.9083 47.9336 41.0032V46.5764Z" fill="#343640"/>
<path d="M83.9652 36.5877C83.9652 38.6159 83.581 40.4109 82.8127 41.9724C82.0444 43.5161 80.9754 44.7276 79.6057 45.6072C78.2361 46.4687 76.6493 46.8995 74.8454 46.8995C73.0582 46.8995 71.4797 46.4687 70.1101 45.6072C68.7571 44.7276 67.6965 43.5161 66.9282 41.9724C66.1765 40.4288 65.8007 38.6429 65.8007 36.6146C65.8007 34.5863 66.1849 32.8004 66.9532 31.2568C67.7216 29.6952 68.7822 28.4836 70.1351 27.622C71.5048 26.7425 73.0832 26.3028 74.8704 26.3028C76.6744 26.3028 78.2528 26.7425 79.6057 27.622C80.9754 28.4836 82.0444 29.6862 82.8127 31.2298C83.581 32.7735 83.9652 34.5594 83.9652 36.5877ZM79.6809 36.5877C79.6809 35.3133 79.4888 34.2274 79.1046 33.3299C78.7205 32.4145 78.1693 31.7145 77.451 31.2298C76.7495 30.7452 75.8977 30.5029 74.8955 30.5029C73.8933 30.5029 73.0331 30.7452 72.3149 31.2298C71.5967 31.7145 71.0455 32.4145 70.6613 33.3299C70.2771 34.2274 70.085 35.3133 70.085 36.5877C70.085 37.8621 70.2771 38.957 70.6613 39.8724C71.0455 40.7878 71.5967 41.4878 72.3149 41.9724C73.0331 42.4571 73.8933 42.6994 74.8955 42.6994C75.8977 42.6994 76.7495 42.4571 77.451 41.9724C78.1693 41.4699 78.7205 40.7609 79.1046 39.8455C79.4888 38.93 79.6809 37.8441 79.6809 36.5877Z" fill="#343640"/>
<path d="M91.0515 46.5764L84.1114 26.6528H88.4459L91.9535 36.7223C92.1706 37.3326 92.3711 37.9698 92.5548 38.6339C92.7385 39.298 92.9306 40.0609 93.131 40.9224C93.3649 39.9711 93.5737 39.1813 93.7574 38.5531C93.9578 37.9249 94.1583 37.3146 94.3587 36.7223L97.8162 26.6528H102.05L95.2356 46.5764H91.0515Z" fill="#343640"/>
<path d="M108.297 26.6528V46.5764H104.238V26.6528H108.297Z" fill="#343640"/>
<path d="M116.174 46.5764H112.166V26.6528H116.174L125.244 41.3532H123.991V26.6528H128V46.5764H123.991L114.922 31.9029H116.174V46.5764Z" fill="#343640"/>
<path d="M140.205 30.4221C139.086 30.4221 138.151 30.6914 137.399 31.2298C136.647 31.7504 136.079 32.4863 135.695 33.4376C135.311 34.3889 135.119 35.5107 135.119 36.8031C135.119 38.1313 135.336 39.2442 135.77 40.1416C136.205 41.0391 136.798 41.7122 137.549 42.1609C138.318 42.5917 139.195 42.8071 140.18 42.8071C141.015 42.8071 141.725 42.6904 142.31 42.4571C142.894 42.2237 143.362 41.9006 143.713 41.4878C144.08 41.075 144.347 40.6083 144.514 40.0878C144.698 39.5672 144.79 39.0288 144.79 38.4723V36.8838L146.719 38.957H139.854V35.1338H148.573V46.5764H145.091L144.765 43.8571L145.216 44.261C144.949 44.7815 144.531 45.2392 143.963 45.6341C143.412 46.029 142.761 46.3341 142.009 46.5495C141.274 46.7649 140.489 46.8726 139.654 46.8726C137.933 46.8726 136.405 46.4508 135.069 45.6072C133.749 44.7456 132.714 43.552 131.962 42.0263C131.211 40.5006 130.835 38.7147 130.835 36.6684C130.835 34.6581 131.227 32.8812 132.012 31.3375C132.797 29.7759 133.9 28.5554 135.319 27.6759C136.739 26.7784 138.401 26.3297 140.305 26.3297C141.792 26.3297 143.128 26.6259 144.314 27.2182C145.517 27.7926 146.494 28.6182 147.245 29.6952C147.997 30.7542 148.44 32.0016 148.573 33.4376H144.314C144.08 32.3786 143.579 31.6157 142.811 31.1491C142.042 30.6644 141.174 30.4221 140.205 30.4221Z" fill="#343640"/>
<path d="M164.402 46.5226L151.173 46.5764V43.3456L157.287 37.88C157.788 37.4492 158.214 37.0454 158.565 36.6684C158.915 36.2736 159.199 35.8966 159.416 35.5376C159.65 35.1607 159.817 34.7928 159.917 34.4338C160.034 34.0568 160.093 33.662 160.093 33.2491C160.093 32.244 159.867 31.4811 159.416 30.9606C158.982 30.4221 158.347 30.1529 157.512 30.1529C156.644 30.1529 155.967 30.458 155.483 31.0683C155.015 31.6786 154.781 32.5401 154.781 33.653H150.748C150.748 32.1632 151.023 30.8708 151.574 29.7759C152.142 28.6631 152.927 27.8015 153.929 27.1913C154.948 26.581 156.134 26.2758 157.487 26.2758C158.907 26.2758 160.118 26.5451 161.12 27.0836C162.122 27.6041 162.891 28.3669 163.425 29.3721C163.976 30.3593 164.252 31.5619 164.252 32.9799C164.252 33.662 164.16 34.3171 163.976 34.9453C163.793 35.5556 163.534 36.1479 163.2 36.7223C162.866 37.2967 162.465 37.8531 161.997 38.3916C161.529 38.93 161.003 39.4596 160.419 39.9801L156.31 43.6686L154.806 42.484H164.402V46.5226Z" fill="#343640"/>
<path d="M178.72 26.6528V46.5764H174.887V26.6528H178.72ZM165.667 39.2262L173.659 26.6528H177.943L169.776 39.5493L165.667 39.2262ZM181 43.0494H165.667V39.2262H181V43.0494Z" fill="#343640"/>
<g clip-path="url(#clip1_397_1686)">
<path d="M9.5 6.1L12.4 2.1C12.4 2.1 11.8 -0.199998 9 0.700002C7.2 3 7.2 3 7.2 3L5 1.2L1 2.1L0 7.8L3.1 12.1L0 17.5L3.5 17.8L7.8 24.1L11.8 26.9L16.7 28L16.9 31.6H13.1L7.1 28.5L0.8 21.4L5.4 28.9L10.1 32.2L16 39.3L18.7 31.4L18.3 27.6L14.3 18.4L11.2 14L8 14.2L9 11.8L6.1 12.6L4.2 9.8L2.2 9.2L2.5 7.6L4.3 8.8V5.7L8.1 4.5L9.5 6.1Z" fill="#0073D0"/>
<path d="M4.39999 31.5L11.4 41L15.3 48.9L10.3 42.9L6.09999 44.8L8.89999 40L4.39999 31.5Z" fill="#0073D0"/>
<path d="M20 16L14.7 18.6L24.8 17.8L27.6 29.9L35.3 26.2L32.9 15L20 16Z" fill="#343640"/>
<path d="M17.5512 28.1058L17.591 28.0654L18.8243 26.8516L18.8419 26.833L18.8534 26.8109L19.2204 26.066C19.2813 25.9573 19.3503 25.9064 19.411 25.8864C19.4574 25.8711 19.5096 25.8704 19.5646 25.8868L19.6205 25.9081L19.6256 25.9108C19.6941 25.9416 19.7562 25.995 19.7967 26.054C19.8374 26.1132 19.8445 26.1606 19.8411 26.1856L19.3685 27.6091L19.2846 27.8631L19.5454 27.8028L22.4776 27.1257L22.4795 27.1255L22.5222 27.1193C22.6222 27.1152 22.7205 27.1809 22.7614 27.3067L22.7623 27.3057C22.7946 27.4148 22.7726 27.4841 22.7432 27.5287C22.7266 27.5539 22.7046 27.5751 22.6811 27.5918L22.6088 27.628L20.8027 28.2053L20.8569 28.4977L23.2439 28.3668C23.3228 28.3626 23.4086 28.3854 23.4737 28.4364C23.5351 28.4846 23.5863 28.5648 23.5935 28.6949C23.6028 28.8675 23.4944 28.9989 23.3515 29.0446L23.2877 29.0588L20.8934 29.3426L20.8971 29.6407L23.0736 29.8452C23.1911 29.8613 23.236 29.9025 23.2574 29.9329C23.2831 29.9693 23.2954 30.0198 23.2991 30.0871C23.3084 30.2569 23.1913 30.3443 23.074 30.3508C23.0804 30.3504 23.0804 30.3502 23.0582 30.3497C23.0421 30.3493 23.019 30.3493 22.9897 30.3485C22.9306 30.3471 22.8466 30.3449 22.7468 30.3423C22.5475 30.3371 22.2835 30.3295 22.02 30.3225C21.7566 30.3154 21.4934 30.3088 21.2962 30.3035C21.1976 30.3008 21.1147 30.2986 21.0572 30.297C21.0287 30.2962 21.0059 30.2952 20.9906 30.2948C20.9831 30.2946 20.9769 30.2949 20.973 30.2948C20.9714 30.2947 20.9701 30.295 20.9691 30.295L20.9681 30.2941L20.9671 30.2941L20.9137 30.5866L22.3326 31.0819L22.3465 31.086C22.4057 31.101 22.4654 31.1401 22.5016 31.2027C22.5275 31.2476 22.5464 31.3137 22.5353 31.4082L22.5137 31.5131L22.5137 31.514C22.4825 31.6203 22.379 31.6843 22.263 31.6853L22.2119 31.6812L19.9294 31.3105L19.9136 31.3074L17.4563 31.4421L17.2743 28.121L17.5512 28.1058Z" fill="white" stroke="#0073D0" stroke-width="0.3"/>
</g>
</g>
<defs>
<clipPath id="clip0_397_1686">
<rect width="181" height="49" fill="white" transform="translate(0 0.5)"/>
</clipPath>
<clipPath id="clip1_397_1686">
<rect width="35.3" height="48.4" fill="white" transform="translate(0 0.5)"/>
</clipPath>
</defs>
</svg>
