<svg width="140" height="50" viewBox="0 0 140 50" fill="none" xmlns="http://www.w3.org/2000/svg">
<path d="M44.346 12.64V23H42.078V12.64H44.346ZM46.264 18.786H43.618V16.882H46.152C46.5627 16.882 46.8753 16.784 47.09 16.588C47.3047 16.392 47.412 16.1073 47.412 15.734C47.412 15.37 47.3047 15.0947 47.09 14.908C46.8753 14.7213 46.5627 14.628 46.152 14.628H43.772V12.64H46.39C47.4353 12.64 48.252 12.8967 48.84 13.41C49.4373 13.9233 49.736 14.6233 49.736 15.51C49.736 16.1167 49.5867 16.63 49.288 17.05C48.9893 17.47 48.5553 17.7687 47.986 17.946V17.75C48.5927 17.8807 49.0547 18.1513 49.372 18.562C49.6987 18.9727 49.862 19.5 49.862 20.144C49.862 20.7507 49.7267 21.2687 49.456 21.698C49.1947 22.1273 48.8027 22.454 48.28 22.678C47.7667 22.8927 47.1367 23 46.39 23H43.772V21.012H46.264C46.684 21.012 47.0013 20.9187 47.216 20.732C47.4307 20.536 47.538 20.2467 47.538 19.864C47.538 19.5093 47.426 19.2433 47.202 19.066C46.9873 18.8793 46.6747 18.786 46.264 18.786ZM57.9685 23H51.3885V12.64H57.9685V14.74H53.0265L53.6565 14.152V16.77H57.4785V18.758H53.6565V21.488L53.0265 20.9H57.9685V23ZM64.2341 13.732V23H61.9661V13.732H64.2341ZM59.0261 14.74V12.64H67.1741V14.74H59.0261ZM73.3669 13.732V23H71.0989V13.732H73.3669ZM68.1589 14.74V12.64H76.3069V14.74H68.1589ZM84.2459 23H77.6659V12.64H84.2459V14.74H79.3039L79.9339 14.152V16.77H83.7559V18.758H79.9339V21.488L79.3039 20.9H84.2459V23ZM88.3694 23H86.1014V12.64H90.1054C91.3654 12.64 92.3361 12.934 93.0174 13.522C93.7081 14.1007 94.0534 14.9267 94.0534 16C94.0534 16.672 93.9088 17.246 93.6194 17.722C93.3394 18.198 92.9101 18.5853 92.3314 18.884L94.1514 23H91.6734L90.1194 19.374H88.3694V23ZM88.3694 14.656V17.386H90.0914C90.5861 17.386 90.9688 17.2647 91.2394 17.022C91.5194 16.7793 91.6594 16.4387 91.6594 16C91.6594 15.5613 91.5241 15.23 91.2534 15.006C90.9921 14.7727 90.6094 14.656 90.1054 14.656H88.3694ZM103.925 23.168C102.889 23.168 101.993 22.9533 101.237 22.524C100.481 22.0853 99.8979 21.4693 99.4872 20.676C99.0765 19.8733 98.8712 18.926 98.8712 17.834C98.8712 16.7513 99.0859 15.8087 99.5152 15.006C99.9445 14.2033 100.547 13.5827 101.321 13.144C102.096 12.696 102.997 12.472 104.023 12.472C104.891 12.472 105.661 12.6307 106.333 12.948C107.015 13.256 107.57 13.6947 107.999 14.264C108.429 14.8333 108.695 15.5053 108.797 16.28H106.403C106.254 15.7573 105.965 15.356 105.535 15.076C105.115 14.796 104.593 14.656 103.967 14.656C103.407 14.656 102.922 14.782 102.511 15.034C102.11 15.286 101.802 15.65 101.587 16.126C101.373 16.5927 101.265 17.1573 101.265 17.82C101.265 18.464 101.373 19.024 101.587 19.5C101.811 19.976 102.124 20.3447 102.525 20.606C102.936 20.858 103.417 20.984 103.967 20.984C104.602 20.984 105.139 20.8393 105.577 20.55C106.025 20.2513 106.319 19.8453 106.459 19.332H108.811C108.69 20.0973 108.405 20.7693 107.957 21.348C107.519 21.9267 106.954 22.3747 106.263 22.692C105.573 23.0093 104.793 23.168 103.925 23.168ZM111.25 23H108.884L112.58 12.64H114.792L118.474 23H116.066L115.338 20.816H111.992L111.25 23ZM113.392 16.7L112.65 18.912H114.694L113.952 16.7C113.896 16.5227 113.84 16.3407 113.784 16.154C113.728 15.9673 113.69 15.8133 113.672 15.692C113.653 15.8133 113.616 15.9673 113.56 16.154C113.513 16.3313 113.457 16.5133 113.392 16.7ZM121.948 12.64V23H119.68V12.64H121.948ZM120.086 23V20.9H126.036V23H120.086ZM129.727 12.64V23H127.459V12.64H129.727ZM127.865 23V20.9H133.815V23H127.865Z" fill="#F9F9F9"/>
<path d="M43.6702 42.7807H41V29.2559H43.6702L47.4119 39.3446L51.1707 29.2559H53.8749V42.7807H51.2047V39.9478C51.2047 39.2167 51.2047 38.6136 51.2047 38.1384C51.2047 37.6632 51.2103 37.2672 51.2217 36.9504C51.233 36.6336 51.2444 36.3594 51.2557 36.1279C51.2784 35.8842 51.3067 35.6345 51.3407 35.3786L48.6705 42.7807H46.1534L43.5001 35.3786C43.5795 35.8782 43.6249 36.4204 43.6362 37.0052C43.6589 37.5901 43.6702 38.2541 43.6702 38.9974V42.7807Z" fill="#F9F9F9"/>
<path d="M68.1297 36C68.1297 37.3768 67.8689 38.5953 67.3473 39.6554C66.8257 40.7032 66.1001 41.5257 65.1703 42.1227C64.2406 42.7076 63.1634 43 61.9388 43C60.7256 43 59.6541 42.7076 58.7244 42.1227C57.8059 41.5257 57.086 40.7032 56.5644 39.6554C56.0541 38.6075 55.799 37.3951 55.799 36.0183C55.799 34.6414 56.0598 33.4291 56.5814 32.3812C57.103 31.3211 57.823 30.4987 58.7414 29.9138C59.6711 29.3168 60.7426 29.0183 61.9558 29.0183C63.1804 29.0183 64.2519 29.3168 65.1703 29.9138C66.1001 30.4987 66.8257 31.3151 67.3473 32.3629C67.8689 33.4108 68.1297 34.6232 68.1297 36ZM65.2213 36C65.2213 35.1349 65.0909 34.3977 64.8302 33.7885C64.5694 33.1671 64.1952 32.6919 63.7076 32.3629C63.2314 32.0339 62.6532 31.8695 61.9729 31.8695C61.2925 31.8695 60.7086 32.0339 60.2211 32.3629C59.7335 32.6919 59.3593 33.1671 59.0985 33.7885C58.8378 34.3977 58.7074 35.1349 58.7074 36C58.7074 36.8651 58.8378 37.6084 59.0985 38.2298C59.3593 38.8512 59.7335 39.3264 60.2211 39.6554C60.7086 39.9843 61.2925 40.1488 61.9729 40.1488C62.6532 40.1488 63.2314 39.9843 63.7076 39.6554C64.1952 39.3142 64.5694 38.8329 64.8302 38.2115C65.0909 37.5901 65.2213 36.8529 65.2213 36Z" fill="#F9F9F9"/>
<path d="M72.9401 42.7807L68.2289 29.2559H71.1713L73.5524 36.0914C73.6998 36.5057 73.8358 36.9382 73.9605 37.389C74.0853 37.8399 74.2157 38.3577 74.3517 38.9426C74.5105 38.2968 74.6522 37.7607 74.7769 37.3342C74.913 36.9077 75.049 36.4935 75.1851 36.0914L77.5322 29.2559H80.4065L75.7804 42.7807H72.9401Z" fill="#F9F9F9"/>
<path d="M84.647 29.2559V42.7807H81.8918V29.2559H84.647Z" fill="#F9F9F9"/>
<path d="M89.9944 42.7807H87.2731V29.2559H89.9944L96.1512 39.235H95.3008V29.2559H98.022V42.7807H95.3008L89.144 32.8198H89.9944V42.7807Z" fill="#F9F9F9"/>
<path d="M106.307 31.8146C105.547 31.8146 104.912 31.9974 104.402 32.3629C103.892 32.7163 103.506 33.2158 103.246 33.8616C102.985 34.5074 102.855 35.2689 102.855 36.1462C102.855 37.0479 103.002 37.8033 103.297 38.4125C103.592 39.0218 103.994 39.4787 104.504 39.7833C105.026 40.0757 105.621 40.2219 106.29 40.2219C106.857 40.2219 107.339 40.1427 107.736 39.9843C108.133 39.8259 108.45 39.6066 108.688 39.3264C108.938 39.0461 109.119 38.7293 109.232 38.376C109.357 38.0226 109.42 37.6571 109.42 37.2794V36.201L110.729 37.6084H106.069V35.0131H111.988V42.7807H109.624L109.403 40.9347L109.709 41.2089C109.527 41.5622 109.244 41.8729 108.858 42.141C108.484 42.4091 108.042 42.6162 107.532 42.7624C107.033 42.9086 106.5 42.9817 105.933 42.9817C104.765 42.9817 103.728 42.6954 102.82 42.1227C101.925 41.5379 101.222 40.7276 100.712 39.6919C100.201 38.6562 99.9462 37.4439 99.9462 36.0548C99.9462 34.6902 100.213 33.4839 100.746 32.436C101.278 31.376 102.027 30.5474 102.991 29.9504C103.954 29.3412 105.083 29.0366 106.375 29.0366C107.384 29.0366 108.291 29.2376 109.096 29.6397C109.913 30.0296 110.576 30.5901 111.086 31.3211C111.597 32.04 111.897 32.8869 111.988 33.8616H109.096C108.938 33.1427 108.597 32.6249 108.076 32.3081C107.554 31.9791 106.965 31.8146 106.307 31.8146Z" fill="#F9F9F9"/>
<path d="M122.733 42.7441L113.753 42.7807V40.5875L117.903 36.8773C118.243 36.5849 118.532 36.3107 118.77 36.0548C119.008 35.7868 119.201 35.5309 119.348 35.2872C119.507 35.0313 119.62 34.7815 119.688 34.5379C119.768 34.282 119.808 34.0139 119.808 33.7337C119.808 33.0513 119.654 32.5335 119.348 32.1802C119.054 31.8146 118.623 31.6319 118.056 31.6319C117.466 31.6319 117.007 31.839 116.678 32.2533C116.361 32.6675 116.202 33.2524 116.202 34.0078H113.464C113.464 32.9965 113.651 32.1192 114.025 31.376C114.41 30.6205 114.943 30.0357 115.624 29.6214C116.315 29.2071 117.12 29 118.039 29C119.003 29 119.825 29.1828 120.505 29.5483C121.185 29.9017 121.707 30.4195 122.07 31.1018C122.444 31.772 122.631 32.5883 122.631 33.5509C122.631 34.0139 122.568 34.4587 122.444 34.8851C122.319 35.2994 122.143 35.7015 121.917 36.0914C121.69 36.4813 121.418 36.859 121.1 37.2245C120.783 37.5901 120.425 37.9495 120.029 38.3029L117.239 40.8068L116.219 40.0026H122.733V42.7441Z" fill="#F9F9F9"/>
<path d="M132.452 29.2559V42.7807H129.85V29.2559H132.452ZM123.591 37.7911L129.017 29.2559H131.925L126.381 38.0104L123.591 37.7911ZM134 40.3864H123.591V37.7911H134V40.3864Z" fill="#F9F9F9"/>
<g clip-path="url(#clip0_182_1719)">
<path d="M9.5 6.60007L12.4 2.60007C12.4 2.60007 11.8 0.30007 9 1.20007C7.2 3.50007 7.2 3.50007 7.2 3.50007L5 1.70007L1 2.60007L0 8.30007L3.1 12.6001L0 18.0001L3.5 18.3001L7.8 24.6001L11.8 27.4001L16.7 28.5001L16.9 32.1001H13.1L7.1 29.0001L0.8 21.9001L5.4 29.4001L10.1 32.7001L16 39.8001L18.7 31.9001L18.3 28.1001L14.3 18.9001L11.2 14.5001L8 14.7001L9 12.3001L6.1 13.1001L4.2 10.3001L2.2 9.70007L2.5 8.10007L4.3 9.30007V6.20007L8.1 5.00007L9.5 6.60007Z" fill="#F9F9F9"/>
<path d="M4.39999 32L11.4 41.5L15.3 49.4L10.3 43.4L6.09999 45.3L8.89999 40.5L4.39999 32Z" fill="#F9F9F9"/>
<path d="M20 16.5L14.7 19.1L24.8 18.3L27.6 30.4L35.3 26.7L32.9 15.5L20 16.5Z" fill="#F9F9F9"/>
<path d="M17.5512 28.6058L17.591 28.5654L18.8243 27.3516L18.8419 27.333L18.8534 27.3109L19.2204 26.566C19.2813 26.4573 19.3503 26.4064 19.411 26.3864C19.4574 26.3711 19.5096 26.3704 19.5646 26.3868L19.6205 26.4081L19.6256 26.4108C19.6941 26.4416 19.7562 26.495 19.7967 26.554C19.8374 26.6132 19.8445 26.6606 19.8411 26.6856L19.3685 28.1091L19.2846 28.3631L19.5454 28.3028L22.4776 27.6257L22.4795 27.6255L22.5222 27.6193C22.6222 27.6152 22.7205 27.6809 22.7614 27.8067L22.7623 27.8057C22.7946 27.9148 22.7726 27.9841 22.7432 28.0287C22.7266 28.0539 22.7046 28.0751 22.6811 28.0918L22.6088 28.128L20.8027 28.7053L20.8569 28.9977L23.2439 28.8668C23.3228 28.8626 23.4086 28.8854 23.4737 28.9364C23.5351 28.9846 23.5863 29.0648 23.5935 29.1949C23.6028 29.3675 23.4944 29.4989 23.3515 29.5446L23.2877 29.5588L20.8934 29.8426L20.8971 30.1407L23.0736 30.3452C23.1911 30.3613 23.236 30.4025 23.2574 30.4329C23.2831 30.4693 23.2954 30.5198 23.2991 30.5871C23.3084 30.7569 23.1913 30.8443 23.074 30.8508C23.0804 30.8504 23.0804 30.8502 23.0582 30.8497C23.0421 30.8493 23.019 30.8493 22.9897 30.8485C22.9306 30.8471 22.8466 30.8449 22.7468 30.8423C22.5475 30.8371 22.2835 30.8295 22.02 30.8225C21.7566 30.8154 21.4934 30.8088 21.2962 30.8035C21.1976 30.8008 21.1147 30.7986 21.0572 30.797C21.0287 30.7962 21.0059 30.7952 20.9906 30.7948C20.9831 30.7946 20.9769 30.7949 20.973 30.7948C20.9714 30.7947 20.9701 30.795 20.9691 30.795L20.9681 30.7941L20.9671 30.7941L20.9137 31.0866L22.3326 31.5819L22.3465 31.586C22.4057 31.601 22.4654 31.6401 22.5016 31.7027C22.5275 31.7476 22.5464 31.8137 22.5353 31.9082L22.5137 32.0131L22.5137 32.014C22.4825 32.1203 22.379 32.1843 22.263 32.1853L22.2119 32.1812L19.9294 31.8105L19.9136 31.8074L17.4563 31.9421L17.2743 28.621L17.5512 28.6058Z" fill="#F9F9F9" stroke="#F9F9F9" stroke-width="0.3"/>
</g>
<defs>
<clipPath id="clip0_182_1719">
<rect width="35.3" height="48.4" fill="white" transform="translate(0 1)"/>
</clipPath>
</defs>
</svg>
