<svg width="24" height="24" viewBox="0 0 24 24" fill="none" xmlns="http://www.w3.org/2000/svg">
<path d="M9.26437 6C9.39522 6.00008 9.52368 6.03514 9.63645 6.10153C9.74921 6.16793 9.84219 6.26325 9.90575 6.37764L10.8034 7.99457C10.8614 8.09891 10.893 8.21581 10.8956 8.33514C10.8982 8.45447 10.8717 8.57264 10.8184 8.67941L9.9537 10.4095C9.9537 10.4095 10.204 11.6982 11.2529 12.7472C12.3019 13.7962 13.5862 14.042 13.5862 14.042L15.3163 13.1773C15.423 13.124 15.5412 13.0975 15.6605 13.1001C15.7799 13.1027 15.8968 13.1343 16.0011 13.1923L17.6225 14.0944C17.8556 14.2233 18.0002 14.4691 18.0002 14.7358V16.5978C18.0002 17.5456 17.1198 18.2312 16.2214 17.927C14.3759 17.3051 11.5114 16.119 9.69595 14.3035C7.88045 12.4887 6.6951 9.62425 6.07245 7.77953C5.76974 6.88115 6.45458 6.00075 7.40241 6.00075L9.26437 6Z" stroke="white" stroke-width="1.5" stroke-linejoin="round"/>
</svg>
