<svg width="50" height="30" viewBox="0 0 50 30" fill="none" xmlns="http://www.w3.org/2000/svg">
<rect width="50" height="30" rx="4" fill="#F9F9F9"/>
<path d="M27.8442 16.527C27.6187 16.5311 27.3942 16.4938 27.1821 16.4168L26.2939 17.3553V14.9614C26.2939 14.15 26.7242 13.3933 27.8442 13.3933C28.9642 13.3933 29.3973 14.15 29.3973 14.9614C29.3973 15.7728 28.9669 16.527 27.8442 16.527ZM21.1461 16.527C20.0235 16.527 19.5931 15.773 19.5931 14.9614C19.5931 14.1497 20.0235 13.3922 21.1461 13.3922C22.2688 13.3922 22.6992 14.1489 22.6992 14.9603C22.6992 15.7716 22.269 16.527 21.1461 16.527ZM14.3958 16.527C13.2731 16.527 12.8427 15.773 12.8427 14.9614C12.8427 14.1497 13.2731 13.3922 14.3958 13.3922C15.5184 13.3922 15.9497 14.15 15.9497 14.9614C15.9497 15.7728 15.5187 16.527 14.3958 16.527ZM27.8442 12.0067C26.1944 12.0067 25.0286 12.6478 24.495 13.6327C23.9627 12.6478 22.7958 12.0067 21.1461 12.0067C19.4702 12.0067 18.2909 12.6697 17.7696 13.6827C17.2512 12.6697 16.0731 12.0067 14.3958 12.0067C12.0896 12.0067 10.7207 13.2613 10.7207 14.9614C10.7209 15.161 10.7413 15.3602 10.7815 15.5558C10.5276 15.9822 9.98145 16.527 8.67374 16.527C7.55106 16.527 7.12067 15.773 7.12067 14.9614C7.12067 14.1497 7.55173 13.3922 8.67441 13.3922C9.32 13.3922 9.73363 13.6481 9.96827 14.0179L10.8704 12.5129C10.1926 12.1621 9.43733 11.988 8.67441 12.0067C6.36559 12.0067 5 13.2613 5 14.9614C5 16.6615 6.36536 17.9162 8.67441 17.9162C10.0787 17.9162 10.9984 17.52 11.6069 17C12.2387 17.5721 13.1875 17.9162 14.3958 17.9162C16.0731 17.9162 17.2509 17.2532 17.7701 16.238C18.2914 17.2532 19.4684 17.9162 21.1466 17.9162C22.7687 17.9162 23.9274 17.2943 24.4708 16.3341V18.9341H26.2943V17.6905C26.7962 17.846 27.3193 17.9222 27.8447 17.9162C30.1535 17.9162 31.5191 16.6617 31.5191 14.9614C31.5191 13.261 30.1531 12.0067 27.8442 12.0067Z" fill="#0078D3"/>
<path d="M33.6034 12.7665H33.9609V16.8706H33.6034V12.7665ZM38.0391 14.1422C38.0469 14.2793 38.0217 14.4164 37.9655 14.5418C37.9094 14.6672 37.8239 14.7773 37.7164 14.8628C37.4473 15.048 37.1237 15.1372 36.7978 15.116H36.4335V16.3319H36.0722V13.242H36.8766C37.6509 13.242 38.0391 13.5424 38.0391 14.1422ZM36.4335 14.8078H36.7591C37.0003 14.8276 37.2418 14.7738 37.4518 14.6537C37.5258 14.5961 37.5841 14.521 37.6217 14.4351C37.6592 14.3493 37.6747 14.2554 37.6668 14.162C37.673 14.0753 37.6579 13.9883 37.6229 13.9087C37.5878 13.8291 37.5339 13.7593 37.4657 13.7053C37.2772 13.5899 37.057 13.537 36.8366 13.554H36.4344V14.8085L36.4335 14.8078ZM39.8708 16.3319L39.8018 16.0045H39.7826C39.6917 16.1278 39.5737 16.2286 39.4378 16.299C39.3013 16.3547 39.1546 16.3809 39.0074 16.3759C38.8105 16.3879 38.6164 16.3251 38.4639 16.2C38.3972 16.1344 38.3452 16.0553 38.3114 15.968C38.2777 15.8806 38.2629 15.7871 38.2682 15.6937C38.2682 15.2244 38.6434 14.9786 39.3935 14.9562L39.7882 14.9428V14.8C39.8009 14.6558 39.7585 14.5121 39.6695 14.3978C39.6199 14.3505 39.5607 14.3145 39.4959 14.2921C39.4311 14.2698 39.3623 14.2616 39.2941 14.2682C39.0649 14.277 38.8405 14.3372 38.6378 14.4445L38.5301 14.1777C38.6485 14.1126 38.7746 14.0627 38.9055 14.0291C39.0399 13.9953 39.1778 13.9777 39.3164 13.9768C39.5372 13.9602 39.7563 14.0259 39.9316 14.1611C40.0041 14.2399 40.0595 14.333 40.0941 14.4343C40.1287 14.5356 40.1419 14.6431 40.1327 14.7497V16.3319H39.8708ZM39.0782 16.0867C39.1719 16.092 39.2658 16.0787 39.3543 16.0475C39.4428 16.0164 39.5243 15.9679 39.594 15.9051C39.6584 15.8393 39.7084 15.7608 39.7407 15.6746C39.773 15.5884 39.787 15.4964 39.7817 15.4045V15.1953L39.4286 15.209C39.2198 15.2014 39.0125 15.246 38.8252 15.3386C38.7649 15.3758 38.7159 15.4288 38.6834 15.4918C38.6508 15.5547 38.636 15.6254 38.6404 15.6961C38.6366 15.7503 38.645 15.8047 38.665 15.8551C38.6851 15.9056 38.7162 15.9509 38.7562 15.9877C38.8484 16.0586 38.9622 16.0937 39.0782 16.0867ZM42.2588 16.3314V14.8342C42.2706 14.6814 42.2243 14.5298 42.1292 14.4096C42.0752 14.359 42.0112 14.3204 41.9413 14.2962C41.8715 14.272 41.7972 14.2628 41.7236 14.2693C41.6251 14.2608 41.5259 14.2741 41.4332 14.3084C41.3405 14.3426 41.2565 14.397 41.1873 14.4675C41.0573 14.6573 40.9978 14.8865 41.019 15.1156V16.329H40.6659V14.0148H40.9529L41.008 14.3312H41.0273C41.101 14.2158 41.2063 14.1241 41.3307 14.0671C41.4661 14.0028 41.6144 13.9707 41.7642 13.9732C41.9929 13.9553 42.2196 14.0274 42.3958 14.1743C42.4738 14.2617 42.533 14.3642 42.5696 14.4755C42.6061 14.5868 42.6193 14.7044 42.6083 14.821V16.3312L42.2588 16.3314ZM43.4892 15.1457C43.5754 15.0284 43.6676 14.9155 43.7651 14.8074L44.5182 14.015H44.933L43.9922 15.0027L45 16.3314H44.5725L43.7531 15.2365L43.4883 15.4648V16.3314H43.1408V13.0414H43.4883V14.7884C43.4883 14.8655 43.4827 14.9837 43.4717 15.1459L43.4892 15.1457Z" fill="black"/>
</svg>
