<svg width="24" height="24" viewBox="0 0 24 24" fill="none" xmlns="http://www.w3.org/2000/svg">
<g clip-path="url(#clip0_63_1855)">
<path d="M18.9765 4.44089C18.6552 4.44089 18.3938 4.70231 18.3938 5.02355C18.3938 5.34478 18.6552 5.6062 18.9765 5.6062C19.2977 5.6062 19.5591 5.34483 19.5591 5.02355C19.5591 4.70227 19.2977 4.44089 18.9765 4.44089ZM12 6.83456C9.15178 6.83456 6.83456 9.15178 6.83456 12C6.83456 14.8482 9.15178 17.1655 12 17.1655C14.8483 17.1655 17.1655 14.8483 17.1655 12C17.1655 9.15183 14.8483 6.83456 12 6.83456Z" fill="white"/>
<path d="M17.4208 0H6.57923C2.95144 0 0 2.95144 0 6.57928V17.4208C0 21.0486 2.95144 24 6.57923 24H17.4208C21.0486 24 24 21.0486 24 17.4208V6.57928C24 2.95144 21.0486 0 17.4208 0ZM12 18.5828C8.37023 18.5828 5.4173 15.6298 5.4173 12C5.4173 8.37023 8.37028 5.41734 12 5.41734C15.6297 5.41734 18.5828 8.37028 18.5828 12C18.5828 15.6297 15.6297 18.5828 12 18.5828ZM18.9765 7.02356C17.8737 7.02356 16.9765 6.12638 16.9765 5.02359C16.9765 3.92081 17.8737 3.02358 18.9765 3.02358C20.0792 3.02358 20.9764 3.92077 20.9764 5.02355C20.9764 6.12633 20.0792 7.02356 18.9765 7.02356Z" fill="white"/>
</g>
<defs>
<clipPath id="clip0_63_1855">
<rect width="24" height="24" fill="white"/>
</clipPath>
</defs>
</svg>
