<svg width="50" height="30" viewBox="0 0 50 30" fill="none" xmlns="http://www.w3.org/2000/svg">
<rect width="50" height="30" rx="4" fill="#F9F9F9"/>
<path d="M42.177 18.8586V16.9017C42.177 16.2299 42.3021 15.8042 42.7049 15.4449C43.2171 14.9801 43.9326 14.9879 43.9326 14.9879V13.5388C42.4038 13.5388 42.1066 14.3864 42.1066 14.3864L41.6687 13.6716H40.7537V18.8586H42.177ZM13.6374 18.9953C14.9981 18.9953 15.3539 18.1477 15.3539 18.1477L15.7919 18.8625H16.7068V13.6755H15.2835V16.2495C15.2835 16.9213 15.0763 17.3587 14.7479 17.5657C14.5875 17.6712 14.3295 17.7181 14.0871 17.7181C13.2659 17.7181 13.0587 17.2533 13.0587 16.4838V13.6755H11.6276V16.9017C11.6315 18.3508 12.3549 18.9953 13.6374 18.9953ZM32.0186 13.5388C32.0265 13.5388 32.0265 13.5388 32.0186 13.5388C30.6579 13.5388 30.3021 14.3864 30.3021 14.3864L29.872 13.6716H28.9571V18.8586H30.3803V16.2924C30.3803 15.6206 30.5875 15.1832 30.916 14.9761C31.0763 14.8707 31.3344 14.8238 31.5768 14.8238C32.3979 14.8238 32.6051 15.2886 32.6051 16.0581V18.8586H34.0284V15.6323C34.0245 14.1833 33.305 13.5388 32.0186 13.5388ZM24.132 13.5388C22.8182 13.5388 22.439 14.3161 22.4311 14.3239L22.4038 14.3864L22.3686 14.3317C22.0128 13.7966 21.5084 13.5427 20.6677 13.5427C19.3539 13.5427 18.9746 14.32 18.9668 14.3278L18.9395 14.3903L18.5015 13.6755H17.5866V18.8625H19.0098V16.2963C19.0098 15.2925 19.3578 14.8277 20.0929 14.8277C20.7459 14.8277 21.0509 15.2144 21.0509 16.0464V18.8625H22.4742V16.2612C22.4742 15.2847 22.8143 14.8238 23.5377 14.8238C23.96 14.8238 24.5152 14.9488 24.5152 16.0581V18.8586H25.9385V15.6323C25.9463 14.1833 25.3832 13.5388 24.132 13.5388ZM7.5416 11.5897H6.0636V18.8586H11.1389V17.3822H7.5416V11.5897ZM26.349 11.5897L27.4048 12.6443L28.4605 11.5897L27.4048 10.5352L26.349 11.5897ZM26.6658 13.6677H28.1438V18.8547H26.6658V13.6677ZM37.352 13.5388C36.5113 13.5388 35.7958 13.8161 35.2757 14.3434C34.7909 14.8355 34.525 15.523 34.525 16.2651C34.525 17.0072 34.787 17.6946 35.2757 18.1868C35.7879 18.7141 36.5113 18.9992 37.352 18.9992C39.0177 18.9992 40.1829 17.8743 40.1829 16.2651C40.1829 14.6559 39.0177 13.5388 37.352 13.5388ZM37.3441 17.7884C36.5309 17.7884 35.9483 17.1517 35.9483 16.269C35.9483 15.4019 36.5465 14.7496 37.3441 14.7496C38.1574 14.7496 38.7596 15.4019 38.7596 16.269C38.7596 17.1439 38.1653 17.7884 37.3441 17.7884Z" fill="#481335"/>
</svg>
