<svg width="50" height="30" viewBox="0 0 50 30" fill="none" xmlns="http://www.w3.org/2000/svg">
<rect width="50" height="30" rx="4" fill="#F9F9F9"/>
<path d="M15.4373 26.2417V24.6958C15.4373 24.1045 15.0771 23.7173 14.4586 23.7173C14.1493 23.7173 13.8131 23.8193 13.5819 24.1555C13.4017 23.8734 13.1435 23.7173 12.7562 23.7173C12.498 23.7173 12.2398 23.7953 12.0356 24.0775V23.7683H11.4952V26.2417H12.0356V24.8759C12.0356 24.4377 12.2668 24.2306 12.6271 24.2306C12.9874 24.2306 13.1675 24.4617 13.1675 24.8759V26.2417H13.708V24.8759C13.708 24.4377 13.9662 24.2306 14.2994 24.2306C14.6597 24.2306 14.8399 24.4617 14.8399 24.8759V26.2417H15.4373ZM23.4538 23.7683H22.5771V23.0209H22.0366V23.7683H21.5472V24.2576H22.0366V25.3922C22.0366 25.9595 22.2678 26.2927 22.8863 26.2927C23.1175 26.2927 23.3757 26.2146 23.5558 26.1126L23.3997 25.6473C23.2436 25.7494 23.0635 25.7764 22.9343 25.7764C22.6761 25.7764 22.5741 25.6203 22.5741 25.3652V24.2576H23.4508V23.7683H23.4538ZM28.0414 23.7143C27.7322 23.7143 27.525 23.8704 27.3959 24.0745V23.7653H26.8555V26.2387H27.3959V24.8459C27.3959 24.4347 27.5761 24.2005 27.9123 24.2005C28.0144 24.2005 28.1435 24.2276 28.2486 24.2516L28.4047 23.7353C28.2966 23.7143 28.1435 23.7143 28.0414 23.7143ZM21.1089 23.9724C20.8507 23.7923 20.4904 23.7143 20.1031 23.7143C19.4846 23.7143 19.0733 24.0234 19.0733 24.5127C19.0733 24.9239 19.3825 25.1581 19.9229 25.2331L20.1811 25.2601C20.4634 25.3111 20.6195 25.3892 20.6195 25.5183C20.6195 25.6984 20.4123 25.8274 20.052 25.8274C19.6918 25.8274 19.4065 25.6984 19.2264 25.5693L18.9682 25.9805C19.2504 26.1876 19.6377 26.2897 20.025 26.2897C20.7456 26.2897 21.1599 25.9535 21.1599 25.4912C21.1599 25.053 20.8237 24.8219 20.3102 24.7438L20.052 24.7168C19.8209 24.6898 19.6407 24.6388 19.6407 24.4857C19.6407 24.3056 19.8209 24.2035 20.1061 24.2035C20.4153 24.2035 20.7246 24.3326 20.8807 24.4107L21.1089 23.9724ZM35.4874 23.7143C35.1781 23.7143 34.971 23.8704 34.8419 24.0745V23.7653H34.3014V26.2387H34.8419V24.8459C34.8419 24.4347 35.022 24.2005 35.3583 24.2005C35.4604 24.2005 35.5895 24.2276 35.6946 24.2516L35.8507 23.7413C35.7456 23.7143 35.5925 23.7143 35.4874 23.7143ZM28.5819 25.005C28.5819 25.7524 29.0983 26.2927 29.8969 26.2927C30.2572 26.2927 30.5154 26.2146 30.7736 26.0105L30.5154 25.5723C30.3082 25.7284 30.1041 25.8034 29.8699 25.8034C29.4315 25.8034 29.1223 25.4942 29.1223 25.005C29.1223 24.5397 29.4315 24.2306 29.8699 24.2065C30.1011 24.2065 30.3082 24.2846 30.5154 24.4377L30.7736 23.9994C30.5154 23.7923 30.2572 23.7173 29.8969 23.7173C29.0983 23.7143 28.5819 24.2576 28.5819 25.005ZM33.5809 23.7683H33.0404V24.0775C32.8603 23.8464 32.6021 23.7173 32.2658 23.7173C31.5693 23.7173 31.0288 24.2576 31.0288 25.005C31.0288 25.7524 31.5693 26.2927 32.2658 26.2927C32.6261 26.2927 32.8843 26.1636 33.0404 25.9325V26.2417H33.5809V23.7683ZM31.5963 25.005C31.5963 24.5667 31.8785 24.2065 32.3439 24.2065C32.7822 24.2065 33.0915 24.5427 33.0915 25.005C33.0915 25.4432 32.7822 25.8034 32.3439 25.8034C31.8815 25.7764 31.5963 25.4402 31.5963 25.005ZM25.1291 23.7143C24.4085 23.7143 23.8921 24.2306 23.8921 25.002C23.8921 25.7764 24.4085 26.2897 25.1561 26.2897C25.5164 26.2897 25.8767 26.1876 26.1619 25.9535L25.9037 25.5663C25.6966 25.7224 25.4384 25.8244 25.1831 25.8244C24.8469 25.8244 24.5136 25.6683 24.4355 25.2331H26.264C26.264 25.1551 26.264 25.104 26.264 25.026C26.288 24.2306 25.8227 23.7143 25.1291 23.7143ZM25.1291 24.1795C25.4654 24.1795 25.6966 24.3866 25.7476 24.7709H24.4596C24.5106 24.4377 24.7418 24.1795 25.1291 24.1795ZM38.5558 22.7898H38.0154V24.0775C37.8353 23.8464 37.5771 23.7173 37.2408 23.7173C36.5442 23.7173 36.0038 24.2576 36.0038 25.005C36.0038 25.7524 36.5442 26.2927 37.2408 26.2927C37.6011 26.2927 37.8593 26.1636 38.0154 25.9325V26.2417H38.5558V22.7898ZM36.5713 25.005C36.5713 24.5667 36.8535 24.2065 37.3189 24.2065C37.7572 24.2065 38.0665 24.5427 38.0665 25.005C38.0665 25.4432 37.7572 25.8034 37.3189 25.8034C36.8535 25.7764 36.5713 25.4402 36.5713 25.005ZM18.4788 23.7683H17.9384V24.0775C17.7582 23.8464 17.5 23.7173 17.1637 23.7173C16.4672 23.7173 15.9267 24.2576 15.9267 25.005C15.9267 25.7524 16.4672 26.2927 17.1637 26.2927C17.524 26.2927 17.7822 26.1636 17.9384 25.9325V26.2417H18.4788V23.7683ZM16.4702 25.005C16.4702 24.5667 16.7524 24.2065 17.2178 24.2065C17.6561 24.2065 17.9654 24.5427 17.9654 25.005C17.9654 25.4432 17.6561 25.8034 17.2178 25.8034C16.7524 25.7764 16.4702 25.4402 16.4702 25.005Z" fill="black"/>
<path d="M29.0472 4.98408H20.9287V19.566H29.0472V4.98408Z" fill="#FF5A00"/>
<path d="M21.4692 12.2751C21.4692 9.31244 22.8623 6.68301 25 4.98408C23.4267 3.74741 21.4422 3 19.2774 3C14.1493 3 10 7.14826 10 12.2751C10 17.4018 14.1493 21.5501 19.2774 21.5501C21.4422 21.5501 23.4267 20.8027 25 19.566C22.8593 17.8911 21.4692 15.2377 21.4692 12.2751Z" fill="#EB001B"/>
<path d="M40 12.2751C40 17.4018 35.8507 21.5501 30.7226 21.5501C28.5578 21.5501 26.5733 20.8027 25 19.566C27.1647 17.8641 28.5308 15.2377 28.5308 12.2751C28.5308 9.31244 27.1377 6.68301 25 4.98408C26.5703 3.74741 28.5548 3 30.7196 3C35.8507 3 40 7.17527 40 12.2751Z" fill="#F79E1B"/>
</svg>
