<svg width="50" height="30" viewBox="0 0 50 30" fill="none" xmlns="http://www.w3.org/2000/svg">
<rect width="50" height="30" rx="4" fill="#F9F9F9"/>
<path d="M30.9109 13.3642C30.2377 12.7558 29.4249 12.4585 28.4853 12.4585C27.5585 12.4585 26.7457 12.7562 26.0721 13.3642C25.3989 13.9592 25.0566 14.7875 25.0566 15.8487C25.0566 16.9098 25.3989 17.7374 26.0721 18.3457C26.7453 18.9408 27.5585 19.2385 28.4853 19.2385C29.4249 19.2385 30.2377 18.9408 30.9109 18.3457C31.597 17.7374 31.9392 16.9094 31.9392 15.8487C31.9392 14.7879 31.5966 13.9592 30.9109 13.3642ZM27.2158 17.2068C26.8608 16.8577 26.6819 16.4045 26.6819 15.8483C26.6819 15.2921 26.8592 14.8392 27.2158 14.5026C27.3812 14.3348 27.579 14.2024 27.7972 14.1134C28.0153 14.0245 28.2493 13.9809 28.4849 13.9853C28.7224 13.9808 28.9584 14.0244 29.1788 14.1133C29.3991 14.2021 29.5992 14.3346 29.7672 14.5026C30.1347 14.8392 30.3136 15.2917 30.3136 15.8483C30.3136 16.4049 30.1362 16.8574 29.7672 17.2068C29.4121 17.543 28.98 17.7113 28.4849 17.7113C28.2506 17.7151 28.0178 17.6724 27.8 17.5858C27.5822 17.4992 27.3837 17.3704 27.2158 17.2068ZM34.3408 19.057V10.1785H32.7408V19.057H34.3408ZM39.5049 12.6396V16.1823C39.5049 17.0358 39.0521 17.6019 38.1902 17.6019C37.3136 17.6019 36.8728 17.0366 36.8728 16.1823V12.6396H35.2698V16.454C35.2698 17.9317 36.1841 19.2381 38.1902 19.2381H38.2026C40.1962 19.2381 41.1091 17.9026 41.1091 16.454V12.6396H39.5049ZM23.354 12.6396L21.754 16.9868L20.154 12.6396H18.4525L21.0057 19.0574H22.5045L25.0574 12.6396H23.354ZM18.46 15.6672C18.46 14.7358 18.1683 13.9725 17.5966 13.3642C17.0249 12.7558 16.2894 12.4585 15.3875 12.4585C14.4608 12.4585 13.6728 12.7823 13.0253 13.4158C12.3898 14.0502 12.0732 14.8521 12.0732 15.8483C12.0732 16.8445 12.3906 17.66 13.0128 18.2936C13.6483 18.9279 14.4102 19.2381 15.3117 19.2381C16.6966 19.2381 17.674 18.617 18.2698 17.3619L17.0766 16.663C16.6838 17.4521 16.1113 17.8404 15.337 17.8404C14.3849 17.8404 13.7117 17.2192 13.6098 16.2362H18.4596L18.46 15.6672ZM15.3358 13.7004C16.2374 13.7004 16.8347 14.2177 16.9868 15.046H13.6091C13.8509 14.2826 14.5102 13.7004 15.3358 13.7004ZM12.0728 19.057L9.92604 15.2275C11.2842 14.723 11.9574 13.8434 11.9574 12.5623C11.9589 10.9966 10.7389 10 8.79623 10H5V19.057H6.67623V15.3826H8.09887L10.1555 19.0574L12.0728 19.057ZM8.79623 11.5008C9.78679 11.5008 10.2823 11.9019 10.2823 12.6909C10.2823 13.48 9.78642 13.8811 8.79623 13.8811H6.67623V11.5008H8.79623ZM43.8215 19.2381C42.7917 19.2381 41.9566 18.3868 41.9566 17.3362V10.9057H43.5566V12.6419H44.9287V13.9615H43.5566V17.2313C43.5566 17.5392 43.8015 17.7887 44.1041 17.7887H44.9287V19.2381H43.8215Z" fill="black"/>
</svg>
