<svg width="50" height="30" viewBox="0 0 50 30" fill="none" xmlns="http://www.w3.org/2000/svg">
<rect width="50" height="30" rx="4" fill="#F9F9F9"/>
<path fill-rule="evenodd" clip-rule="evenodd" d="M16.7893 11.0056L14.8584 12.4478C13.9229 11.6802 12.7626 11.5183 12.088 11.5183C11.4434 11.5183 10.7688 11.7133 10.6399 12.1599C10.5439 12.6397 10.9607 12.9934 11.7012 13.1853C12.5377 13.4102 13.3113 13.6021 14.4716 13.9229C16.2106 14.4356 17.4009 15.1732 17.4009 16.9362C17.4009 19.3078 15.2752 20.5581 12.4088 20.5581C9.5455 20.5581 7.57866 19.0829 7 18.3783L9.05978 16.8732C10.4779 18.1205 11.5094 18.2824 12.3129 18.2824C13.2783 18.2824 14.1808 18.0905 14.3098 17.5448C14.4057 17.0951 14.0189 16.7742 13.2154 16.5823C12.2799 16.3575 11.5094 16.1986 10.6399 15.9737C8.28926 15.3321 7.61163 13.9889 7.61163 12.7386C7.61163 11.0716 9.18873 9.3086 12.088 9.3086C15.0503 9.3086 16.7893 11.0056 16.7893 11.0056ZM29.1541 9.50049H20.4921V20.2372H29.316V17.7697H23.5503V16.0397H27.511V13.6681H23.5503V11.9351H29.1541V9.50049ZM18.948 7H18.2704V22.7348H18.948V7ZM31.1179 7H30.4403V22.7348H31.1179V7ZM32.6621 20.2372H39.618C41.4859 20.2372 43 19.1459 43 17.3529C43 15.9437 42.0645 15.0443 40.7783 14.6275C40.7783 14.6275 40.7453 14.6275 40.6493 14.5975H40.7783C41.5189 14.3067 42.3224 13.5391 42.3224 12.2259C42.3224 10.5589 40.8413 9.50043 39.0393 9.50043H32.6621V20.2372ZM35.7232 11.7432H38.1698C38.7155 11.7432 39.1683 12.16 39.1683 12.6727C39.1683 13.1854 38.7155 13.6021 38.1698 13.6021H35.7232V11.7432ZM38.6855 17.8656H35.7232V15.9108H38.6855C39.2312 15.9108 39.6509 16.3275 39.6509 16.8732C39.6509 17.4488 39.2312 17.8656 38.6855 17.8656Z" fill="#444444"/>
</svg>
