<svg width="50" height="30" viewBox="0 0 50 30" fill="none" xmlns="http://www.w3.org/2000/svg">
<rect width="50" height="30" rx="4" fill="#F9F9F9"/>
<path d="M5.44546 14.8268C5.44546 15.8782 6.14749 16.2708 7.20197 16.5348C8.20556 16.7738 8.41177 17.0875 8.41177 17.483C8.41177 17.9212 8.01894 18.2273 7.45597 18.2273C6.82653 18.2187 6.22547 17.964 5.78142 17.5178C5.76302 17.5401 5.25573 18.1652 5.23877 18.1869C5.83289 18.7454 6.61787 19.0559 7.43327 19.055C8.55872 19.055 9.31475 18.3859 9.31475 17.3883C9.31475 16.5152 8.79194 15.9941 7.61822 15.6982C6.55538 15.4354 6.34749 15.1487 6.34749 14.7405C6.34749 14.3855 6.64976 14.0263 7.2273 14.0263C7.75588 14.0462 8.26232 14.2437 8.66481 14.5869L9.14892 13.8794C8.61696 13.4298 7.94018 13.1882 7.24379 13.1991C6.20173 13.1991 5.44546 13.8842 5.44546 14.8268Z" fill="#FF5F00"/>
<path d="M12.3179 14.8371L11.4185 17.7382C11.4185 17.7382 10.6099 14.8744 10.6039 14.8526H9.69468L10.9829 19.0077H11.78C11.7862 18.9871 12.6942 16.1334 12.6942 16.1334C12.6942 16.1334 13.5936 18.9869 13.6003 19.0077H14.3977C14.4041 18.9869 15.688 14.8911 15.7007 14.8526H14.8139L13.9845 17.7374L13.0765 14.8371H12.3179Z" fill="#FF5F00"/>
<path d="M16.1351 16.9145V16.9303C16.1351 18.1702 16.9934 19.0703 18.1759 19.0703C18.7082 19.0872 19.2325 18.9367 19.6749 18.6402C19.6677 18.6187 19.4421 17.9472 19.4311 17.915C19.0693 18.1716 18.6333 18.3023 18.19 18.2873C17.8992 18.301 17.6145 18.2008 17.3965 18.008C17.1784 17.8151 17.0442 17.5448 17.0223 17.2545L17.0197 17.2376H19.9671V17.2318L19.9807 16.9852C19.9807 15.8806 19.3917 14.7663 18.0763 14.7663C16.9695 14.7663 16.1351 15.6896 16.1351 16.9145ZM17.0158 16.6218C17.1026 15.9491 17.5164 15.515 18.0698 15.515C18.6383 15.515 19.0338 15.9391 19.1014 16.622L19.1028 16.6385H17.013L17.0158 16.6218Z" fill="#FF5F00"/>
<path d="M23.9095 13.1991V15.2046L23.8856 15.1855C23.5431 14.9 23.1073 14.7508 22.6617 14.7663C21.7456 14.7663 20.818 15.5014 20.818 16.9066V16.9219C20.818 18.3272 21.7958 19.0626 22.7613 19.0626C23.4437 19.0474 24.1242 18.9849 24.7979 18.8755V13.1991H23.9095ZM21.7133 16.9219V16.9066C21.7133 16.1276 22.2048 15.562 22.8818 15.562C23.5093 15.562 23.925 15.9812 23.925 16.1511V18.1955L23.9128 18.1979C23.5717 18.25 23.2268 18.273 22.8818 18.2667C22.2156 18.2667 21.7133 17.6887 21.7133 16.9219Z" fill="#FF5F00"/>
<path d="M25.9797 13.1991V18.8755C26.6535 18.9849 27.3339 19.0474 28.0163 19.0626C28.9821 19.0626 29.9599 18.3272 29.9599 16.9219V16.9066C29.9599 15.5014 29.0321 14.7663 28.1159 14.7663C27.6703 14.7508 27.2346 14.9 26.8921 15.1855L26.8682 15.2046V13.1991H25.9797ZM26.8639 18.1979L26.8519 18.1955V16.1511C26.8519 15.9812 27.2674 15.562 27.8947 15.562C28.5716 15.562 29.0631 16.1276 29.0631 16.9066V16.9219C29.0631 17.6887 28.5613 18.2667 27.8947 18.2667C27.5504 18.2729 27.2062 18.2499 26.8658 18.1979H26.8639Z" fill="#FF5F00"/>
<path d="M31.0524 15.1288C31.0603 15.1527 31.2842 15.8356 31.2937 15.8641C31.6494 15.6975 32.0372 15.6107 32.4299 15.6096C33.0751 15.6096 33.4311 15.9305 33.4311 16.5133V16.6127L33.4113 16.606C33.0563 16.4853 32.6832 16.4271 32.3083 16.434C31.3009 16.434 30.6995 16.937 30.6995 17.78V17.7957C30.6995 18.666 31.4311 19.0622 32.1109 19.0622C32.8453 19.05 33.578 18.9874 34.3038 18.8748V16.5284C34.3038 15.391 33.7004 14.7895 32.5594 14.7895C32.0374 14.7824 31.521 14.8986 31.0524 15.1288ZM31.5805 17.7482V17.7324C31.5805 17.319 31.9293 17.0724 32.5124 17.0724C32.8278 17.0714 33.1408 17.1281 33.4359 17.2397L33.4452 17.2433V18.2997L33.433 18.3018C33.081 18.3574 32.7249 18.3829 32.3685 18.3781C31.8976 18.3764 31.5805 18.1243 31.5805 17.7482Z" fill="#FF5F00"/>
<path d="M35.4259 14.9532V18.9761H36.314V15.6309L36.3262 15.6287C36.626 15.5836 36.9289 15.5618 37.2321 15.5635C37.7781 15.5635 38.104 15.9628 38.104 16.6316V18.9761H38.9922V16.3477C38.9922 15.3718 38.4514 14.7659 37.5809 14.7659C36.859 14.7764 36.1388 14.839 35.4259 14.9532Z" fill="#FF5F00"/>
<path d="M40.1298 13.1991V18.9761H41.0177V17.7974L41.5958 17.1738C41.5958 17.1738 42.7991 18.963 42.8082 18.9761H43.8342C43.8039 18.9305 42.197 16.5272 42.197 16.5272L43.774 14.8526H42.6987C42.6897 14.8624 41.0158 16.7164 41.0158 16.7164V13.1991H40.1298Z" fill="#FF5F00"/>
</svg>
