<svg width="50" height="30" viewBox="0 0 50 30" fill="none" xmlns="http://www.w3.org/2000/svg">
<rect width="50" height="30" rx="4" fill="#F9F9F9"/>
<path d="M30.4428 9.01807C27.8893 9.01807 25.6073 10.3493 25.6073 12.8084C25.6073 15.6288 29.6544 15.8236 29.6544 17.2406C29.6544 17.8373 28.9747 18.3713 27.8133 18.3713C26.1656 18.3713 24.9341 17.6251 24.9341 17.6251L24.407 20.107C24.407 20.107 25.8258 20.7373 27.7093 20.7373C30.5011 20.7373 32.6982 19.3409 32.6982 16.8395C32.6982 13.8591 28.6341 13.6701 28.6341 12.3551C28.6341 11.8877 29.1921 11.3757 30.3499 11.3757C31.6563 11.3757 32.7219 11.9185 32.7219 11.9185L33.2378 9.52168C33.2378 9.52168 32.0783 9.01807 30.4428 9.01807ZM7.07986 9.19909L7.01794 9.56078C7.01794 9.56078 8.09218 9.75846 9.05986 10.1531C10.3058 10.6053 10.3944 10.8689 10.6043 11.6864L12.8906 20.5505H15.9557L20.6774 9.19909H17.6196L14.5855 16.917L13.3475 10.3747C13.2341 9.62595 12.6588 9.19873 11.955 9.19873L7.07986 9.19909ZM21.9072 9.19909L19.5085 20.5505H22.4245L24.8145 9.19909H21.9072ZM38.1705 9.19909C37.4675 9.19909 37.0949 9.5778 36.8216 10.2393L32.5495 20.5505H35.6073L36.1988 18.8318H39.9241L40.2837 20.5505H42.9819L40.6283 9.19909H38.1705ZM38.5683 12.266L39.4748 16.5256H37.0466L38.5683 12.266Z" fill="#1434CB"/>
</svg>
